<mxfile host="app.diagrams.net" modified="2023-09-11T10:13:58.447Z" agent="Mozilla/5.0 (Windows NT 10.0; Win64; x64) AppleWebKit/537.36 (KHTML, like Gecko) Chrome/115.0.0.0 Safari/537.36" version="21.7.4" etag="GSpS1kjX3xbkB6-MhO8h" type="github">
  <diagram name="Trang-1" id="_yUFe2j3HLTXAqJEYAcm">
    <mxGraphModel>
      <root>
        <mxCell id="0" />
        <mxCell id="1" parent="0" />
      </root>
    </mxGraphModel>
  </diagram>
</mxfile>
